<svg width="44" height="30" viewBox="0 0 44 30" fill="none" xmlns="http://www.w3.org/2000/svg">
<path d="M16.8373 0.184391C15.3011 0.754385 14.3677 1.60938 13.7649 3.01536C13.6093 3.39536 12.9482 4.59235 12.3065 5.67533C11.6648 6.75832 10.1481 9.4373 8.90355 11.6413C7.6785 13.8263 5.85063 17.0752 4.83948 18.8612C3.82832 20.6282 2.70049 22.6422 2.31158 23.3262C1.94212 24.0101 1.26153 25.2071 0.833735 26.0241C-0.274649 28.0001 -0.274649 29.1401 0.81429 29.6911C1.5921 30.0901 39.5689 30.1091 40.7161 29.7101C41.9801 29.2541 42.9524 28.4751 43.4774 27.4491C44.1774 26.0621 44.1774 23.4971 43.4579 21.3312C42.1162 17.1892 37.9743 11.5083 33.4436 7.57531C30.8768 5.33334 30.9546 5.40934 28.4461 3.69935C26.696 2.48337 24.2848 1.26738 22.4764 0.678387C20.5319 0.0323925 17.8679 -0.195604 16.8373 0.184391ZM20.7847 3.94635C27.61 6.03633 36.9243 14.8712 39.705 21.8632C40.4828 23.8391 40.5606 25.4921 39.8994 26.0051C37.5854 27.8481 28.5434 22.4712 22.9236 15.9162C18.1595 10.3873 15.8844 4.95334 17.7901 3.71836C18.179 3.45236 19.5402 3.56636 20.7847 3.94635ZM15.3205 11.5463C17.7123 16.1252 22.7098 21.7302 27.4155 25.0931L29.0684 26.2711L23.0014 26.3281C19.6568 26.3471 14.2316 26.3471 10.9259 26.3281L4.91726 26.2711L5.63674 25.0361C6.04509 24.3521 6.78401 23.0222 7.30904 22.0912C7.81461 21.1412 8.90355 19.2222 9.70081 17.8162C12.287 13.2943 13.4343 11.2803 13.8621 10.4633C14.0955 10.0073 14.3094 9.66529 14.3288 9.70329C14.3483 9.72229 14.7955 10.5583 15.3205 11.5463Z" fill="white"/>
</svg>
