<svg width="48" height="34" viewBox="0 0 48 34" fill="none" xmlns="http://www.w3.org/2000/svg">
<g filter="url(#filter0_d_317_241)">
<path d="M18.8373 0.184391C17.3011 0.754385 16.3677 1.60938 15.7649 3.01536C15.6093 3.39536 14.9482 4.59235 14.3065 5.67533C13.6648 6.75832 12.1481 9.4373 10.9036 11.6413C9.6785 13.8263 7.85063 17.0752 6.83948 18.8612C5.82832 20.6282 4.70049 22.6422 4.31158 23.3262C3.94212 24.0101 3.26153 25.2071 2.83374 26.0241C1.72535 28.0001 1.72535 29.1401 2.81429 29.6911C3.5921 30.0901 41.5689 30.1091 42.7161 29.7101C43.9801 29.2541 44.9524 28.4751 45.4774 27.4491C46.1774 26.0621 46.1774 23.4971 45.4579 21.3312C44.1162 17.1892 39.9743 11.5083 35.4436 7.57531C32.8768 5.33334 32.9546 5.40934 30.4461 3.69935C28.696 2.48337 26.2848 1.26738 24.4764 0.678387C22.5319 0.0323925 19.8679 -0.195604 18.8373 0.184391ZM22.7847 3.94635C29.61 6.03633 38.9243 14.8712 41.705 21.8632C42.4828 23.8391 42.5606 25.4921 41.8994 26.0051C39.5854 27.8481 30.5434 22.4712 24.9236 15.9162C20.1595 10.3873 17.8844 4.95334 19.7901 3.71836C20.179 3.45236 21.5402 3.56636 22.7847 3.94635ZM17.3205 11.5463C19.7123 16.1252 24.7098 21.7302 29.4155 25.0931L31.0684 26.2711L25.0014 26.3281C21.6568 26.3471 16.2316 26.3471 12.9259 26.3281L6.91726 26.2711L7.63674 25.0361C8.04509 24.3521 8.78401 23.0222 9.30904 22.0912C9.81461 21.1412 10.9036 19.2222 11.7008 17.8162C14.287 13.2943 15.4343 11.2803 15.8621 10.4633C16.0955 10.0073 16.3094 9.66529 16.3288 9.70329C16.3483 9.72229 16.7955 10.5583 17.3205 11.5463Z" fill="black"/>
</g>
<defs>
<filter id="filter0_d_317_241" x="0" y="0" width="48" height="34" filterUnits="userSpaceOnUse" color-interpolation-filters="sRGB">
<feFlood flood-opacity="0" result="BackgroundImageFix"/>
<feColorMatrix in="SourceAlpha" type="matrix" values="0 0 0 0 0 0 0 0 0 0 0 0 0 0 0 0 0 0 127 0" result="hardAlpha"/>
<feOffset dy="2"/>
<feGaussianBlur stdDeviation="1"/>
<feComposite in2="hardAlpha" operator="out"/>
<feColorMatrix type="matrix" values="0 0 0 0 0 0 0 0 0 0 0 0 0 0 0 0 0 0 0.25 0"/>
<feBlend mode="normal" in2="BackgroundImageFix" result="effect1_dropShadow_317_241"/>
<feBlend mode="normal" in="SourceGraphic" in2="effect1_dropShadow_317_241" result="shape"/>
</filter>
</defs>
</svg>
